<svg xmlns="http://www.w3.org/2000/svg" xmlns:xlink="http://www.w3.org/1999/xlink" width="1080" zoomAndPan="magnify" viewBox="0 0 810 809.999993" height="1080" preserveAspectRatio="xMidYMid meet" version="1.0"><defs><g/><clipPath id="df37253786"><path d="M 54.101562 54.101562 L 756.101562 54.101562 L 756.101562 756.101562 L 54.101562 756.101562 Z M 54.101562 54.101562 " clip-rule="nonzero"/></clipPath></defs><g clip-path="url(#df37253786)"><path fill="#f8f7f2" d="M 405.101562 54.101562 C 211.25 54.101562 54.101562 211.25 54.101562 405.101562 C 54.101562 598.953125 211.25 756.101562 405.101562 756.101562 C 598.953125 756.101562 756.101562 598.953125 756.101562 405.101562 C 756.101562 211.25 598.953125 54.101562 405.101562 54.101562 " fill-opacity="1" fill-rule="nonzero"/></g><g fill="#050a30" fill-opacity="1"><g transform="translate(216.662923, 572.48786)"><g><path d="M 360.40625 -52.375 L 357.6875 -95.59375 L 357.6875 -97.828125 L 357.4375 -108.4375 L 356.703125 -118.8125 C 355.222656 -131.164062 354.644531 -147.390625 354.96875 -167.484375 L 355.71875 -206.515625 C 355.882812 -216.234375 356.789062 -223.890625 358.4375 -229.484375 C 360.738281 -237.054688 360.984375 -244.382812 359.171875 -251.46875 C 357.859375 -256.25 357.613281 -261.109375 358.4375 -266.046875 C 359.425781 -271.972656 359.257812 -278.640625 357.9375 -286.046875 L 356.453125 -298.65625 C 354.640625 -313.96875 351.59375 -330.679688 347.3125 -348.796875 C 346 -354.890625 343.445312 -360.984375 339.65625 -367.078125 L 336.453125 -372.015625 L 333.734375 -377.203125 C 330.765625 -383.128906 326.070312 -387.164062 319.65625 -389.3125 L 315.203125 -390.796875 C 313.554688 -391.453125 312.238281 -392.273438 311.25 -393.265625 C 308.613281 -396.390625 304.742188 -397.707031 299.640625 -397.21875 C 289.429688 -396.0625 277.492188 -395.8125 263.828125 -396.46875 L 257.40625 -395.984375 C 254.101562 -395.328125 252.289062 -393.429688 251.96875 -390.296875 L 251.46875 -385.609375 L 251.21875 -380.90625 C 251.550781 -375.96875 249.988281 -371.441406 246.53125 -367.328125 C 239.445312 -358.765625 232.941406 -345.175781 227.015625 -326.5625 L 223.796875 -317.671875 L 210.71875 -280.625 C 205.9375 -266.625 202.226562 -254.1875 199.59375 -243.3125 L 190.703125 -209.484375 L 189.21875 -203.796875 C 188.5625 -201.816406 187.492188 -200.171875 186.015625 -198.859375 C 184.367188 -200.171875 182.800781 -201.898438 181.3125 -204.046875 L 177.609375 -209.71875 L 162.046875 -236.15625 C 157.109375 -244.71875 153.734375 -251.304688 151.921875 -255.921875 L 137.34375 -291.734375 C 131.582031 -305.398438 126.3125 -317.09375 121.53125 -326.8125 C 113.957031 -341.800781 106.132812 -353.082031 98.0625 -360.65625 L 96.09375 -362.390625 L 94.859375 -364.609375 C 94.203125 -367.078125 92.71875 -370.039062 90.40625 -373.5 L 87.6875 -377.703125 L 85.46875 -382.140625 C 82.007812 -390.710938 75.585938 -396.3125 66.203125 -398.9375 C 58.296875 -401.25 49.566406 -402.238281 40.015625 -401.90625 C 31.941406 -401.582031 25.6875 -399.609375 21.25 -395.984375 C 15.15625 -391.035156 10.128906 -386.585938 6.171875 -382.640625 C 3.367188 -379.671875 2.132812 -376.128906 2.46875 -372.015625 L 3.703125 -355.21875 L 4.453125 -305.328125 L 4.6875 -293.46875 L 5.6875 -281.609375 C 6.507812 -271.566406 6.835938 -263.660156 6.671875 -257.890625 L 7.15625 -242.578125 L 7.65625 -227.265625 L 7.40625 -206.265625 L 6.921875 -185.015625 L 6.921875 -159.078125 L 6.421875 -133.140625 C 5.597656 -102.679688 6.257812 -78.804688 8.40625 -61.515625 C 8.894531 -57.722656 9.054688 -54.179688 8.890625 -50.890625 C 8.722656 -45.117188 9.796875 -38.859375 12.109375 -32.109375 L 16.296875 -19.015625 C 17.285156 -15.398438 19.675781 -11.53125 23.46875 -7.40625 C 27.582031 -2.800781 34.25 -0.00390625 43.46875 0.984375 C 52.863281 2.140625 60.273438 0.738281 65.703125 -3.21875 C 72.953125 -8.15625 77.976562 -13.007812 80.78125 -17.78125 C 88.1875 -29.476562 92.796875 -39.359375 94.609375 -47.421875 C 96.910156 -57.472656 98.472656 -71.472656 99.296875 -89.421875 L 100.046875 -112.640625 L 100.53125 -135.859375 L 101.53125 -153.890625 L 102.765625 -171.6875 L 104 -185.015625 L 104.484375 -198.109375 L 104.734375 -218.609375 L 104.484375 -239.359375 L 103.25 -266.296875 C 102.59375 -276.335938 101.769531 -285.226562 100.78125 -292.96875 L 100.046875 -301.859375 L 104 -294.203125 L 107.203125 -286.546875 L 114.125 -270.984375 C 125.65625 -246.117188 137.265625 -225.203125 148.953125 -208.234375 L 154.640625 -200.578125 L 160.078125 -192.671875 C 162.546875 -188.722656 165.835938 -184.441406 169.953125 -179.828125 L 175.640625 -173.90625 L 181.3125 -167.984375 C 184.113281 -165.015625 186.914062 -163.773438 189.71875 -164.265625 C 196.957031 -165.421875 202.0625 -167.726562 205.03125 -171.1875 C 211.289062 -178.59375 216.3125 -186.171875 220.09375 -193.921875 L 227.265625 -209.234375 C 228.742188 -212.023438 229.894531 -214.988281 230.71875 -218.125 L 240.84375 -255.921875 L 248.015625 -280.859375 C 248.503906 -269.660156 248.503906 -258.050781 248.015625 -246.03125 L 247.265625 -222.8125 L 247.265625 -199.59375 C 248.421875 -180.488281 248.671875 -163.9375 248.015625 -149.9375 L 248.265625 -143.515625 C 249.910156 -132.648438 250.238281 -121.78125 249.25 -110.90625 L 249 -104.484375 C 249.820312 -95.765625 249.820312 -82.757812 249 -65.46875 C 248.664062 -58.550781 248.910156 -51.878906 249.734375 -45.453125 C 250.890625 -37.546875 252.457031 -30.300781 254.4375 -23.71875 C 256.738281 -15.8125 257.148438 -4.613281 255.671875 9.875 L 253.6875 34.828125 L 252.21875 59.53125 C 251.394531 70.5625 256.332031 75.75 267.03125 75.09375 C 273.289062 74.601562 280.945312 75.34375 290 77.3125 L 301.609375 79.296875 C 313.472656 81.273438 323.929688 79.296875 332.984375 73.359375 C 340.566406 68.421875 345.753906 62.90625 348.546875 56.8125 C 355.140625 41.832031 358.929688 28 359.921875 15.3125 C 360.578125 7.570312 360.820312 -3.046875 360.65625 -16.546875 L 360.65625 -32.359375 L 360.90625 -48.171875 Z M 360.40625 -52.375 "/></g></g></g></svg>